<svg width="336" height="91" viewBox="0 0 336 91" fill="none" xmlns="http://www.w3.org/2000/svg">
<path d="M83.9523 41.334C83.7973 39.9598 83.158 38.8952 82.0342 38.1404C80.9103 37.3758 79.496 36.9935 77.7909 36.9935C76.5703 36.9935 75.5143 37.1871 74.6231 37.5742C73.7319 37.9517 73.0391 38.4742 72.5451 39.142C72.0607 39.8 71.8185 40.5501 71.8185 41.3921C71.8185 42.0984 71.9832 42.7081 72.3126 43.2212C72.6516 43.734 73.0924 44.1647 73.635 44.5131C74.1872 44.8518 74.7781 45.1372 75.4079 45.3695C76.0374 45.5921 76.643 45.776 77.2242 45.9212L80.1305 46.676C81.08 46.9083 82.0535 47.2229 83.0513 47.6196C84.0492 48.0164 84.9743 48.539 85.8269 49.1875C86.6794 49.8358 87.3672 50.6392 87.8903 51.5972C88.4232 52.5552 88.6896 53.7021 88.6896 55.0376C88.6896 56.7215 88.2537 58.2168 87.3817 59.5233C86.5196 60.8297 85.2651 61.8603 83.6181 62.6152C81.9809 63.3701 79.9997 63.7476 77.6747 63.7476C75.4465 63.7476 73.5188 63.3944 71.8912 62.6878C70.2636 61.9813 68.9898 60.9797 68.0695 59.6829C67.1491 58.3764 66.6405 56.828 66.5436 55.0376H71.0484C71.1356 56.1118 71.4843 57.0071 72.0946 57.7231C72.7146 58.4296 73.5042 58.9571 74.4633 59.3055C75.4321 59.6443 76.4928 59.8136 77.6456 59.8136C78.9148 59.8136 80.0433 59.6152 81.0315 59.2184C82.0293 58.8118 82.8141 58.2506 83.3855 57.5344C83.9572 56.8087 84.243 55.9618 84.243 54.994C84.243 54.1134 83.9911 53.3924 83.4872 52.8311C82.9933 52.2698 82.3199 51.8053 81.4675 51.4376C80.6247 51.0697 79.6704 50.7455 78.6048 50.4649L75.0881 49.5067C72.7049 48.8584 70.8159 47.9051 69.4208 46.6471C68.0356 45.3889 67.3428 43.7243 67.3428 41.6533C67.3428 39.9404 67.8078 38.4451 68.7379 37.1677C69.6679 35.8903 70.9273 34.8982 72.516 34.1919C74.1048 33.4757 75.8971 33.1176 77.8928 33.1176C79.9077 33.1176 81.6854 33.4709 83.2258 34.1772C84.7758 34.8838 85.9963 35.8564 86.8877 37.0951C87.7789 38.3242 88.244 39.7372 88.2826 41.334H83.9523ZM100.202 63.7476C98.7878 63.7476 97.5089 63.4863 96.3659 62.9637C95.2228 62.4314 94.3169 61.6619 93.6485 60.6556C92.9896 59.649 92.6603 58.4152 92.6603 56.9538C92.6603 55.6956 92.9026 54.6602 93.3869 53.8473C93.8713 53.0344 94.5252 52.3907 95.3486 51.9166C96.1721 51.4423 97.0924 51.0843 98.1097 50.8423C99.1268 50.6004 100.163 50.4164 101.219 50.2907C102.556 50.1358 103.641 50.0101 104.474 49.9132C105.308 49.8069 105.913 49.6374 106.291 49.4051C106.669 49.1729 106.858 48.7954 106.858 48.2728V48.1713C106.858 46.9035 106.499 45.9212 105.782 45.2244C105.075 44.5275 104.019 44.1792 102.614 44.1792C101.152 44.1792 99.9987 44.5034 99.1559 45.1518C98.3228 45.7905 97.7463 46.5019 97.4266 47.2857L93.3432 46.3566C93.8277 45.0018 94.5349 43.9083 95.4648 43.076C96.4046 42.234 97.4847 41.6243 98.7054 41.2469C99.926 40.8598 101.21 40.6661 102.556 40.6661C103.447 40.6661 104.392 40.7727 105.39 40.9855C106.397 41.1887 107.337 41.5661 108.209 42.1178C109.091 42.6695 109.812 43.4582 110.374 44.4841C110.936 45.5002 111.217 46.8212 111.217 48.4471V63.254H106.974V60.2055H106.799C106.518 60.7669 106.097 61.3184 105.535 61.8603C104.973 62.4023 104.252 62.8524 103.37 63.2104C102.488 63.5685 101.432 63.7476 100.202 63.7476ZM101.147 60.2635C102.348 60.2635 103.375 60.0265 104.227 59.5522C105.09 59.078 105.743 58.4587 106.189 57.6942C106.644 56.9199 106.872 56.0924 106.872 55.2118V52.3376C106.717 52.4924 106.417 52.6376 105.971 52.773C105.535 52.8988 105.036 53.0101 104.474 53.1069C103.912 53.194 103.365 53.2762 102.832 53.3536C102.3 53.4214 101.854 53.4795 101.495 53.5279C100.653 53.6344 99.8824 53.8134 99.1849 54.0649C98.497 54.3166 97.9449 54.6795 97.5283 55.1538C97.1215 55.6183 96.918 56.2376 96.918 57.0118C96.918 58.0861 97.3152 58.899 98.1097 59.4506C98.904 59.9926 99.9163 60.2635 101.147 60.2635ZM127.627 40.9564V44.4406H115.013V40.9564H127.627ZM118.472 63.254V38.3726C118.472 36.979 118.777 35.8226 119.387 34.9032C119.998 33.9741 120.807 33.2822 121.814 32.8273C122.822 32.3628 123.916 32.1305 125.098 32.1305C125.97 32.1305 126.716 32.203 127.336 32.3481C127.956 32.4838 128.416 32.6095 128.717 32.7256L127.699 36.2386C127.496 36.1806 127.234 36.1129 126.915 36.0354C126.595 35.9483 126.207 35.9048 125.752 35.9048C124.696 35.9048 123.94 36.1661 123.485 36.6887C123.04 37.2113 122.817 37.9661 122.817 38.9533V63.254H118.472ZM132.11 63.254V40.9564H136.455V63.254H132.11ZM134.304 37.5161C133.548 37.5161 132.899 37.2645 132.357 36.7612C131.824 36.2483 131.557 35.6386 131.557 34.9321C131.557 34.216 131.824 33.6063 132.357 33.103C132.899 32.5901 133.548 32.3337 134.304 32.3337C135.06 32.3337 135.704 32.5901 136.237 33.103C136.779 33.6063 137.05 34.216 137.05 34.9321C137.05 35.6386 136.779 36.2483 136.237 36.7612C135.704 37.2645 135.06 37.5161 134.304 37.5161ZM151.92 63.7041C149.72 63.7041 147.827 63.2346 146.238 62.296C144.659 61.3475 143.438 60.0168 142.576 58.3039C141.723 56.5812 141.297 54.5633 141.297 52.2504C141.297 49.9665 141.723 47.9535 142.576 46.2115C143.438 44.4695 144.639 43.1099 146.18 42.1324C147.73 41.1549 149.541 40.6661 151.615 40.6661C152.874 40.6661 154.094 40.8743 155.277 41.2905C156.458 41.7065 157.518 42.3598 158.459 43.2501C159.398 44.1406 160.139 45.297 160.683 46.7196C161.225 48.1326 161.497 49.8503 161.497 51.873V53.4118H143.753V50.16H157.238C157.238 49.018 157.006 48.0067 156.54 47.1261C156.076 46.2358 155.422 45.534 154.579 45.0212C153.746 44.5083 152.767 44.2518 151.644 44.2518C150.424 44.2518 149.357 44.5518 148.447 45.1518C147.546 45.7422 146.848 46.5164 146.354 47.4744C145.87 48.4229 145.628 49.4536 145.628 50.5665V53.1069C145.628 54.5972 145.889 55.8651 146.412 56.9102C146.945 57.9554 147.686 58.7538 148.636 59.3055C149.584 59.8475 150.694 60.1184 151.963 60.1184C152.786 60.1184 153.537 60.0023 154.215 59.77C154.893 59.5281 155.48 59.17 155.974 58.6958C156.469 58.2215 156.846 57.636 157.108 56.9393L161.22 57.6796C160.89 58.8893 160.299 59.949 159.446 60.8587C158.604 61.7588 157.544 62.4604 156.264 62.9637C154.996 63.4572 153.548 63.7041 151.92 63.7041ZM170.661 50.0148V63.254H166.317V40.9564H170.486V44.5857H170.763C171.276 43.4049 172.081 42.4566 173.176 41.7404C174.28 41.0243 175.67 40.6661 177.345 40.6661C178.867 40.6661 180.199 40.9855 181.342 41.6243C182.485 42.2533 183.372 43.1921 184.001 44.4406C184.631 45.6889 184.946 47.2325 184.946 49.0713V63.254H180.601V49.5938C180.601 47.9778 180.18 46.7148 179.337 45.8051C178.494 44.8857 177.336 44.4259 175.864 44.4259C174.856 44.4259 173.96 44.6437 173.176 45.0792C172.401 45.5147 171.786 46.1534 171.33 46.9954C170.884 47.8277 170.661 48.8342 170.661 50.0148ZM201.192 40.9564V44.4406H189.001V40.9564H201.192ZM192.27 35.6145H196.615V56.7071C196.615 57.549 196.741 58.1829 196.993 58.6087C197.244 59.0249 197.57 59.3103 197.967 59.4651C198.373 59.6103 198.814 59.6829 199.288 59.6829C199.638 59.6829 199.942 59.6587 200.204 59.6103C200.465 59.5619 200.67 59.5233 200.815 59.4942L201.599 63.0797C201.348 63.1766 200.989 63.2734 200.523 63.3701C200.059 63.4766 199.478 63.5346 198.781 63.5443C197.637 63.5637 196.571 63.3605 195.583 62.9346C194.595 62.5088 193.796 61.8506 193.185 60.9603C192.574 60.07 192.27 58.9522 192.27 57.6071V35.6145Z" fill="url(#paint0_linear_3871_3655)"/>
<path d="M243.191 43.7815C243.089 42.8788 242.67 42.1794 241.932 41.6837C241.193 41.1814 240.264 40.9304 239.144 40.9304C238.342 40.9304 237.649 41.0575 237.064 41.3118C236.478 41.5598 236.023 41.903 235.699 42.3416C235.381 42.7739 235.221 43.2665 235.221 43.8197C235.221 44.2838 235.33 44.6842 235.545 45.0212C235.769 45.358 236.057 45.641 236.414 45.8699C236.777 46.0923 237.165 46.2798 237.579 46.4324C237.993 46.5786 238.39 46.6995 238.772 46.7948L240.681 47.2907C241.305 47.4433 241.944 47.6499 242.599 47.9105C243.255 48.1711 243.863 48.5144 244.423 48.9403C244.983 49.3662 245.435 49.8939 245.779 50.5233C246.128 51.1526 246.303 51.9059 246.303 52.7832C246.303 53.8894 246.016 54.8716 245.444 55.7296C244.878 56.5879 244.054 57.265 242.971 57.7609C241.896 58.2566 240.595 58.5046 239.068 58.5046C237.604 58.5046 236.338 58.2726 235.269 57.8085C234.199 57.3444 233.363 56.6865 232.758 55.8347C232.154 54.9764 231.819 53.9593 231.756 52.7832H234.715C234.773 53.4888 235.001 54.0769 235.403 54.5472C235.809 55.0113 236.329 55.3579 236.958 55.5867C237.595 55.8092 238.291 55.9204 239.048 55.9204C239.883 55.9204 240.624 55.7901 241.273 55.5294C241.929 55.2624 242.444 54.8938 242.819 54.4233C243.195 53.9465 243.382 53.3904 243.382 52.7545C243.382 52.176 243.216 51.7025 242.886 51.3337C242.562 50.9651 242.119 50.6599 241.559 50.4184C241.006 50.1767 240.379 49.9638 239.678 49.7794L237.368 49.1501C235.803 48.7241 234.562 48.098 233.645 47.2716C232.736 46.4451 232.281 45.3518 232.281 43.9912C232.281 42.8661 232.587 41.8839 233.197 41.0448C233.808 40.2056 234.635 39.554 235.679 39.0899C236.723 38.6196 237.9 38.3843 239.211 38.3843C240.534 38.3843 241.702 38.6164 242.714 39.0804C243.733 39.5445 244.535 40.1834 245.12 40.997C245.706 41.8044 246.01 42.7326 246.036 43.7815H243.191ZM253.865 58.5046C252.936 58.5046 252.097 58.333 251.346 57.9897C250.595 57.6401 250 57.1346 249.561 56.4735C249.128 55.8123 248.912 55.0018 248.912 54.042C248.912 53.2155 249.07 52.5353 249.388 52.0013C249.708 51.4673 250.136 51.0445 250.677 50.733C251.219 50.4215 251.822 50.1863 252.491 50.0274C253.159 49.8685 253.84 49.7477 254.534 49.665C255.412 49.5633 256.125 49.4806 256.673 49.4171C257.219 49.3471 257.616 49.236 257.866 49.0834C258.114 48.9308 258.238 48.6828 258.238 48.3396V48.2729C258.238 47.44 258.002 46.7948 257.531 46.3371C257.067 45.8794 256.372 45.6506 255.45 45.6506C254.489 45.6506 253.732 45.8635 253.178 46.2894C252.632 46.709 252.252 47.1762 252.042 47.6912L249.36 47.0809C249.678 46.1909 250.142 45.4725 250.755 44.9259C251.371 44.3727 252.081 43.9723 252.883 43.7244C253.684 43.47 254.528 43.3429 255.412 43.3429C255.998 43.3429 256.617 43.4129 257.273 43.5527C257.934 43.6862 258.553 43.9341 259.125 44.2965C259.704 44.6588 260.179 45.1769 260.548 45.8508C260.917 46.5182 261.1 47.386 261.1 48.454V58.1804H258.314V56.1779H258.199C258.015 56.5466 257.737 56.9089 257.369 57.265C257 57.621 256.526 57.9166 255.947 58.1517C255.367 58.387 254.675 58.5046 253.865 58.5046ZM254.486 56.216C255.275 56.216 255.95 56.0602 256.51 55.7487C257.076 55.4373 257.506 55.0304 257.799 54.5281C258.097 54.0196 258.247 53.4761 258.247 52.8976V51.0096C258.145 51.1113 257.948 51.2066 257.655 51.2956C257.369 51.3782 257.041 51.4513 256.673 51.515C256.302 51.5721 255.944 51.6261 255.593 51.677C255.244 51.7216 254.951 51.7597 254.715 51.7914C254.161 51.8614 253.656 51.979 253.198 52.1442C252.745 52.3095 252.382 52.5479 252.109 52.8594C251.842 53.1646 251.709 53.5715 251.709 54.08C251.709 54.7856 251.969 55.3197 252.491 55.6821C253.012 56.038 253.678 56.216 254.486 56.216ZM271.881 43.5336V45.8221H263.594V43.5336H271.881ZM265.867 58.1804V41.8362C265.867 40.9208 266.067 40.1612 266.467 39.5572C266.869 38.9469 267.401 38.4925 268.062 38.1936C268.724 37.8884 269.444 37.736 270.219 37.736C270.792 37.736 271.282 37.7836 271.69 37.8789C272.097 37.9679 272.399 38.0506 272.596 38.1268L271.929 40.4345C271.794 40.3963 271.622 40.3518 271.413 40.301C271.203 40.2438 270.947 40.2152 270.649 40.2152C269.956 40.2152 269.459 40.3867 269.16 40.7302C268.867 41.0734 268.721 41.5693 268.721 42.2176V58.1804H265.867ZM280.566 58.4761C279.122 58.4761 277.878 58.1677 276.834 57.551C275.798 56.928 274.996 56.054 274.428 54.9287C273.868 53.7972 273.589 52.4717 273.589 50.9523C273.589 49.452 273.868 48.1298 274.428 46.9854C274.996 45.8412 275.784 44.9481 276.797 44.306C277.814 43.6639 279.004 43.3429 280.366 43.3429C281.193 43.3429 281.995 43.4796 282.772 43.7529C283.548 44.0263 284.246 44.4553 284.862 45.0403C285.479 45.6251 285.966 46.3847 286.323 47.3193C286.68 48.2474 286.857 49.3758 286.857 50.7044V51.7152H275.202V49.5792H284.06C284.06 48.829 283.908 48.1647 283.602 47.5862C283.297 47.0014 282.867 46.5404 282.313 46.2036C281.767 45.8666 281.123 45.6982 280.385 45.6982C279.583 45.6982 278.883 45.8952 278.286 46.2894C277.693 46.6772 277.236 47.1858 276.91 47.815C276.592 48.4382 276.434 49.1151 276.434 49.8463V51.515C276.434 52.4939 276.606 53.3266 276.949 54.0133C277.299 54.6999 277.785 55.2244 278.41 55.5867C279.032 55.9427 279.761 56.1207 280.596 56.1207C281.136 56.1207 281.629 56.0444 282.074 55.8918C282.521 55.7329 282.906 55.4977 283.23 55.1862C283.554 54.8747 283.802 54.4901 283.974 54.0324L286.675 54.5188C286.459 55.3133 286.072 56.0094 285.512 56.607C284.958 57.1982 284.26 57.6591 283.421 57.9897C282.586 58.3139 281.635 58.4761 280.566 58.4761ZM301.011 47.1094L298.423 47.5672C298.316 47.2367 298.144 46.9219 297.908 46.6231C297.68 46.3244 297.367 46.0796 296.973 45.889C296.579 45.6982 296.085 45.6028 295.493 45.6028C294.685 45.6028 294.01 45.7839 293.47 46.1463C292.929 46.5024 292.659 46.9632 292.659 47.5291C292.659 48.0185 292.84 48.4126 293.203 48.7115C293.565 49.0103 294.151 49.2549 294.959 49.4457L297.288 49.9796C298.637 50.2911 299.642 50.7712 300.305 51.4195C300.966 52.068 301.296 52.9103 301.296 53.9465C301.296 54.8238 301.043 55.6057 300.533 56.2924C300.03 56.9725 299.328 57.5065 298.423 57.8943C297.527 58.2821 296.486 58.4761 295.302 58.4761C293.661 58.4761 292.321 58.1264 291.284 57.427C290.247 56.7214 289.61 55.7202 289.375 54.4233L292.133 54.0038C292.305 54.7221 292.659 55.2657 293.194 55.6343C293.728 55.9967 294.424 56.1779 295.283 56.1779C296.219 56.1779 296.967 55.984 297.527 55.5963C298.087 55.2021 298.367 54.7221 298.367 54.1564C298.367 53.6986 298.195 53.314 297.851 53.0025C297.514 52.691 296.996 52.4557 296.295 52.2969L293.813 51.7534C292.445 51.4419 291.433 50.946 290.777 50.2658C290.129 49.5855 289.804 48.7241 289.804 47.6817C289.804 46.817 290.046 46.0605 290.529 45.4122C291.013 44.7637 291.681 44.2583 292.535 43.8959C293.388 43.5273 294.364 43.3429 295.465 43.3429C297.049 43.3429 298.296 43.6862 299.207 44.3727C300.117 45.053 300.719 45.9652 301.011 47.1094Z" fill="#818CF8"/>
<path d="M217.653 37.295V62.6557" stroke="#818CF8" stroke-width="1.5"/>
<path d="M36.7361 42.785C34.661 42.785 32.9729 44.4714 32.9729 46.5444C32.9729 48.6174 34.661 50.3037 36.7361 50.3037C38.8112 50.3037 40.4993 48.6174 40.4993 46.5444C40.4993 44.4714 38.8112 42.785 36.7361 42.785ZM36.7361 48.1555C35.8491 48.1555 35.1233 47.4305 35.1233 46.5444C35.1233 45.6582 35.8491 44.9332 36.7361 44.9332C37.6231 44.9332 38.3489 45.6582 38.3489 46.5444C38.3489 47.4305 37.6231 48.1555 36.7361 48.1555Z" fill="url(#paint1_linear_3871_3655)" stroke="url(#paint2_linear_3871_3655)"/>
<path d="M45.3967 41.163C45.3752 41.1147 45.3537 41.0717 45.3269 41.0288C45.3107 41.0019 45.2892 40.9804 45.2677 40.959C43.4453 38.177 40.3003 36.3403 36.736 36.3403C33.1663 36.3403 30.0268 38.1824 28.1989 40.959C28.1828 40.9804 28.1613 41.0019 28.1452 41.0288C28.1183 41.0717 28.0968 41.1147 28.0806 41.1577C27.0968 42.7258 26.5216 44.5679 26.5216 46.5443C26.5216 48.5206 27.0968 50.3681 28.0753 51.9309C28.0968 51.9738 28.1129 52.0222 28.1398 52.0598C28.1505 52.0812 28.172 52.0974 28.1882 52.1135C30.016 54.9008 33.161 56.7482 36.736 56.7482C40.311 56.7482 43.456 54.9007 45.2785 52.1188C45.2946 52.0974 45.3107 52.0812 45.3269 52.0598C45.3537 52.0168 45.3752 51.9685 45.3967 51.9255C46.3752 50.3627 46.9504 48.5206 46.9504 46.5443C46.9504 44.5679 46.3752 42.7258 45.3967 41.163ZM37.8112 54.5194V53.5259C37.8112 52.9352 37.3274 52.4518 36.736 52.4518C36.1446 52.4518 35.6608 52.9352 35.6608 53.5259V54.5194C33.6448 54.2509 31.86 53.2359 30.602 51.759L31.4406 51.222C31.9406 50.8997 32.0858 50.2392 31.7632 49.7397C31.4406 49.2403 30.7794 49.0952 30.2794 49.4175L29.4461 49.9545C28.9516 48.918 28.672 47.7634 28.672 46.5443C28.672 45.3252 28.9516 44.1705 29.4408 43.134L30.2741 43.6711C30.4515 43.7892 30.6557 43.8429 30.8547 43.8429C31.2095 43.8429 31.5535 43.6711 31.7578 43.3488C32.0804 42.8494 31.9352 42.1834 31.4353 41.8666L30.5966 41.3295C31.8546 39.8526 33.6394 38.8376 35.6554 38.5691V39.5626C35.6554 40.1534 36.1393 40.6367 36.7306 40.6367C37.322 40.6367 37.8058 40.1534 37.8058 39.5626V38.5691C39.8218 38.8376 41.6067 39.8526 42.8646 41.3295L42.026 41.8666C41.526 42.1888 41.3809 42.8494 41.7034 43.3488C41.9077 43.6657 42.2572 43.8429 42.6066 43.8429C42.8055 43.8429 43.0098 43.7892 43.1872 43.6711L44.0259 43.134C44.5205 44.1705 44.8 45.3252 44.8 46.5443C44.8 47.7634 44.5205 48.918 44.0312 49.9545L43.1926 49.4175C42.6926 49.0952 42.026 49.2403 41.7088 49.7397C41.3862 50.2392 41.5314 50.9051 42.0314 51.222L42.87 51.759C41.612 53.2359 39.8272 54.2509 37.8112 54.5194Z" fill="url(#paint3_linear_3871_3655)" stroke="url(#paint4_linear_3871_3655)"/>
<path d="M50.176 25.5994H12.5441C9.58191 25.5994 7.16809 28.0107 7.16809 30.9699V32.044V61.0446V62.1187C7.16809 65.0778 9.58191 67.4892 12.5441 67.4892H13.6193V69.6374C13.6193 71.415 15.0654 72.8597 16.8448 72.8597H17.92C19.6995 72.8597 21.1456 71.415 21.1456 69.6374V67.4892H41.5744V69.6374C41.5744 71.415 43.0206 72.8597 44.8 72.8597H45.8752C47.6547 72.8597 49.1008 71.415 49.1008 69.6374V67.4892H50.176C53.1382 67.4892 55.552 65.0778 55.552 62.1187V61.0446V32.044V30.9699C55.552 28.0107 53.1382 25.5994 50.176 25.5994ZM12.5441 27.7476H50.176C51.9555 27.7476 53.4016 29.1922 53.4016 30.9699H9.31849C9.31849 29.1922 10.7646 27.7476 12.5441 27.7476ZM9.31849 59.9705V33.1181H15.232V36.4961C13.6784 36.958 12.5441 38.3972 12.5441 40.0997V52.9889C12.5441 54.6859 13.6784 56.1252 15.232 56.5925V59.9705H9.31849ZM16.3072 54.6C15.4202 54.6 14.6945 53.875 14.6945 52.9889V40.0997C14.6945 39.2136 15.4202 38.4885 16.3072 38.4885C17.1943 38.4885 17.92 39.2136 17.92 40.0997V52.9889C17.92 53.875 17.1943 54.6 16.3072 54.6ZM17.3824 56.5871C18.9361 56.1252 20.0704 54.6859 20.0704 52.9835V40.0997C20.0704 38.4026 18.9361 36.9633 17.3824 36.4961V33.1181H53.4016V59.9705H17.3824V56.5871ZM18.9952 69.6374C18.9952 70.2281 18.5114 70.7115 17.92 70.7115H16.8448C16.2535 70.7115 15.7696 70.2281 15.7696 69.6374V67.4892H18.9952V69.6374ZM46.9504 69.6374C46.9504 70.2281 46.4666 70.7115 45.8752 70.7115H44.8C44.2086 70.7115 43.7248 70.2281 43.7248 69.6374V67.4892H46.9504V69.6374ZM50.176 65.341H48.0256H42.6496H20.0704H14.6945H12.5441C10.7646 65.341 9.31849 63.8963 9.31849 62.1187H53.4016C53.4016 63.8963 51.9555 65.341 50.176 65.341Z" fill="url(#paint5_linear_3871_3655)" stroke="url(#paint6_linear_3871_3655)"/>
<defs>
<linearGradient id="paint0_linear_3871_3655" x1="16.8389" y1="39.7074" x2="232.05" y2="32.5712" gradientUnits="userSpaceOnUse">
<stop offset="0.0885417" stop-color="#44BCF0"/>
<stop offset="0.567708" stop-color="#818CF8"/>
<stop offset="1" stop-color="#A099FF"/>
</linearGradient>
<linearGradient id="paint1_linear_3871_3655" x1="30.3893" y1="44.3358" x2="42.0833" y2="44.2503" gradientUnits="userSpaceOnUse">
<stop offset="0.0885417" stop-color="#44BCF0"/>
<stop offset="0.567708" stop-color="#818CF8"/>
<stop offset="1" stop-color="#A099FF"/>
</linearGradient>
<linearGradient id="paint2_linear_3871_3655" x1="30.3893" y1="44.3358" x2="42.0833" y2="44.2503" gradientUnits="userSpaceOnUse">
<stop offset="0.0885417" stop-color="#44BCF0"/>
<stop offset="0.567708" stop-color="#818CF8"/>
<stop offset="1" stop-color="#A099FF"/>
</linearGradient>
<linearGradient id="paint3_linear_3871_3655" x1="19.5091" y1="40.5495" x2="51.25" y2="40.3178" gradientUnits="userSpaceOnUse">
<stop offset="0.0885417" stop-color="#44BCF0"/>
<stop offset="0.567708" stop-color="#818CF8"/>
<stop offset="1" stop-color="#A099FF"/>
</linearGradient>
<linearGradient id="paint4_linear_3871_3655" x1="19.5091" y1="40.5495" x2="51.25" y2="40.3178" gradientUnits="userSpaceOnUse">
<stop offset="0.0885417" stop-color="#44BCF0"/>
<stop offset="0.567708" stop-color="#818CF8"/>
<stop offset="1" stop-color="#A099FF"/>
</linearGradient>
<linearGradient id="paint5_linear_3871_3655" x1="-9.44049" y1="35.3468" x2="65.735" y2="34.7856" gradientUnits="userSpaceOnUse">
<stop offset="0.0885417" stop-color="#44BCF0"/>
<stop offset="0.567708" stop-color="#818CF8"/>
<stop offset="1" stop-color="#A099FF"/>
</linearGradient>
<linearGradient id="paint6_linear_3871_3655" x1="-9.44049" y1="35.3468" x2="65.735" y2="34.7856" gradientUnits="userSpaceOnUse">
<stop offset="0.0885417" stop-color="#44BCF0"/>
<stop offset="0.567708" stop-color="#818CF8"/>
<stop offset="1" stop-color="#A099FF"/>
</linearGradient>
</defs>
</svg>
