<svg class="fill-current w-full sm:w-auto" viewBox="0 0 361 120" fill="none" xmlns="http://www.w3.org/2000/svg"><g clip-path="url(#clip0)"><path opacity="0.05" d="M33.0553 120.136H6.25545C1.45021 120.136 -1.55458 115.14 0.841955 111.148L14.2479 88.8762L27.6418 66.6043C30.0505 62.6006 36.0601 62.6006 38.4688 66.6043L51.8748 88.8762L65.2686 111.148C67.6773 115.14 64.6725 120.136 59.8551 120.136H33.0553Z" fill="#4C49E4"></path><path opacity="0.4" d="M66.1139 56.5346H39.314C34.5088 56.5346 31.504 51.5386 33.9005 47.5465L47.3065 25.2747L60.7004 3.00284C63.1091 -1.00095 69.1186 -1.00095 71.5273 3.00284L84.9333 25.2747L98.3272 47.5465C100.736 51.5386 97.7311 56.5346 92.9137 56.5346H66.1139Z" fill="#4C49E4"></path><path opacity="0.4" d="M138.182 120.136H111.382C106.577 120.136 103.572 115.14 105.968 111.148L119.374 88.8762L132.768 66.6043C135.177 62.6006 141.186 62.6006 143.595 66.6043L157.001 88.8762L170.395 111.148C172.804 115.14 169.799 120.136 164.981 120.136H138.182Z" fill="#4C49E4"></path><path opacity="0.3" d="M171.24 56.5346H144.44C139.635 56.5346 136.63 51.5386 139.027 47.5465L152.433 25.2747L165.827 3.00284C168.235 -1.00095 174.245 -1.00095 176.654 3.00284L190.06 25.2747L203.454 47.5465C205.862 51.5386 202.857 56.5346 198.04 56.5346H171.24Z" fill="#4C49E4"></path><path opacity="0.4" d="M243.308 120.136H216.508C211.703 120.136 208.698 115.14 211.095 111.148L224.501 88.8762L237.894 66.6043C240.303 62.6006 246.313 62.6006 248.721 66.6043L262.127 88.8762L275.521 111.148C277.93 115.14 274.925 120.136 270.108 120.136H243.308Z" fill="#4C49E4"></path><path opacity="0.4" d="M276.367 56.5346H249.567C244.761 56.5346 241.757 51.5386 244.153 47.5465L257.559 25.2747L270.953 3.00284C273.362 -1.00095 279.371 -1.00095 281.78 3.00284L295.186 25.2747L308.58 47.5465C310.989 51.5386 307.984 56.5346 303.166 56.5346H276.367Z" fill="#4C49E4"></path><path opacity="0.15" d="M84.6333 63.6015L111.433 63.6015C116.238 63.6015 119.243 68.5975 116.847 72.5896L103.441 94.8615L90.0468 117.133C87.6381 121.137 81.6285 121.137 79.2198 117.133L65.8138 94.8615L52.42 72.5896C50.0113 68.5975 53.0161 63.6015 57.8335 63.6015L84.6333 63.6015Z" fill="#4C49E4"></path><path opacity="0.6" d="M117.692 1.00679e-06L144.492 3.28332e-06C149.297 3.69151e-06 152.302 4.99599 149.905 8.98811L136.499 31.2599L123.106 53.5318C120.697 57.5356 114.687 57.5356 112.279 53.5318L98.8726 31.2599L85.4787 8.9881C83.0701 4.99598 86.0748 -1.67896e-06 90.8922 -1.26974e-06L117.692 1.00679e-06Z" fill="#4C49E4"></path><path opacity="0.4" d="M189.76 63.6015L216.56 63.6015C221.365 63.6015 224.37 68.5975 221.973 72.5896L208.567 94.8615L195.173 117.133C192.765 121.137 186.755 121.137 184.346 117.133L170.94 94.8615L157.546 72.5896C155.138 68.5975 158.143 63.6015 162.96 63.6015L189.76 63.6015Z" fill="#4C49E4"></path><path opacity="0.3" d="M222.818 1.00679e-06L249.618 3.28332e-06C254.423 3.69151e-06 257.428 4.99599 255.032 8.98811L241.626 31.2599L228.232 53.5318C225.823 57.5356 219.814 57.5356 217.405 53.5318L203.999 31.2599L190.605 8.9881C188.196 4.99598 191.201 -1.67896e-06 196.019 -1.26974e-06L222.818 1.00679e-06Z" fill="#4C49E4"></path><path opacity="0.1" d="M294.886 63.6015L321.686 63.6015C326.491 63.6015 329.496 68.5975 327.099 72.5896L313.693 94.8615L300.3 117.133C297.891 121.137 291.881 121.137 289.473 117.133L276.067 94.8615L262.673 72.5896C260.264 68.5975 263.269 63.6015 268.086 63.6015L294.886 63.6015Z" fill="#4C49E4"></path><path opacity="0.6" d="M327.945 1.00679e-06L354.745 3.28332e-06C359.55 3.69151e-06 362.555 4.99599 360.158 8.98811L346.752 31.2599L333.358 53.5318C330.95 57.5356 324.94 57.5356 322.531 53.5318L309.125 31.2599L295.731 8.9881C293.323 4.99598 296.328 -1.67896e-06 301.145 -1.26974e-06L327.945 1.00679e-06Z" fill="#4C49E4"></path></g><defs><clipPath id="clip0"><rect width="361" height="120" fill="white"></rect></clipPath></defs></svg>