<svg width="25" height="25" viewBox="0 0 25 25" fill="none" xmlns="http://www.w3.org/2000/svg">
<path fill-rule="evenodd" clip-rule="evenodd" d="M18.3596 2.79635C19.4209 1.73475 21.1419 1.73452 22.2036 2.79585C23.1703 3.7623 23.257 5.27575 22.4634 6.34027L22.7843 7.53916C22.7843 7.5392 22.7843 7.53913 22.7843 7.53916C22.972 8.23995 22.7717 8.98774 22.2587 9.50074C21.7456 10.0138 20.9979 10.2141 20.2971 10.0264L19.1299 9.7133L18.9799 9.86329L19.293 11.0302L19.2932 11.0312C19.48 11.7317 19.2794 12.4788 18.7667 12.9914C18.2541 13.5041 17.507 13.7047 16.8065 13.5179L16.8055 13.5177L15.6386 13.2046L13.9802 14.863C14.8701 17.4734 13.9115 20.3858 11.5943 21.9481C9.15198 23.5947 5.88536 23.2798 3.80256 21.197C1.71976 19.1142 1.40488 15.8476 3.05148 13.4053C4.61377 11.0881 7.52613 10.1295 10.1365 11.0194L18.3596 2.79635C18.3596 2.79633 18.3595 2.79638 18.3596 2.79635ZM21.2756 3.72408C20.7266 3.17522 19.8366 3.17535 19.2877 3.72438L10.7641 12.248C10.5751 12.4371 10.2901 12.4925 10.0439 12.3881C7.91047 11.4836 5.43518 12.2176 4.13977 14.139C2.84435 16.0604 3.09207 18.6303 4.73065 20.2689C6.36923 21.9075 8.93915 22.1552 10.8605 20.8598C12.7819 19.5644 13.516 17.0891 12.6114 14.9556C12.5071 14.7094 12.5625 14.4245 12.7516 14.2354L14.9785 12.0085C15.1443 11.8427 15.3861 11.7779 15.6126 11.8387L17.1447 12.2497C17.1449 12.2498 17.1445 12.2497 17.1447 12.2497C17.3925 12.3156 17.6573 12.2447 17.8386 12.0633C18.02 11.882 18.091 11.6179 18.0252 11.3701C18.0251 11.3699 18.0253 11.3703 18.0252 11.3701L17.614 9.8373C17.5532 9.61078 17.618 9.36905 17.7838 9.20321L18.4698 8.5172C18.6357 8.35136 18.8774 8.28663 19.1039 8.3474L20.6367 8.75859C20.6368 8.75861 20.6366 8.75857 20.6367 8.75859C20.8845 8.82489 21.1492 8.75406 21.3306 8.57265C21.512 8.39118 21.5829 8.12668 21.5165 7.87879L21.1061 6.34565C21.0455 6.11925 21.1102 5.87772 21.2759 5.71197C21.8248 5.16295 21.8246 4.27294 21.2756 3.72408ZM5.15063 17.818C5.15063 16.6964 6.0599 15.7871 7.18154 15.7871C8.30318 15.7871 9.21245 16.6964 9.21245 17.818C9.21245 18.9396 8.30318 19.8489 7.18154 19.8489C6.0599 19.8489 5.15063 18.9396 5.15063 17.818ZM7.18154 17.0996C6.78478 17.0996 6.46315 17.4212 6.46315 17.818C6.46315 18.2147 6.78478 18.5364 7.18154 18.5364C7.57829 18.5364 7.89993 18.2147 7.89993 17.818C7.89993 17.4212 7.57829 17.0996 7.18154 17.0996Z" fill="white"/>
</svg>
