<svg width="25" height="25" viewBox="0 0 25 25" fill="none" xmlns="http://www.w3.org/2000/svg">
<path fill-rule="evenodd" clip-rule="evenodd" d="M18.75 3.125C18.75 1.39911 20.1491 0 21.875 0C23.6009 0 25 1.39911 25 3.125C25 4.85089 23.6009 6.25 21.875 6.25C21.0764 6.25 20.3477 5.95042 19.7953 5.45751L15.2764 8.463C14.9171 8.70195 14.4322 8.60441 14.1932 8.24514C13.9543 7.88588 14.0518 7.40093 14.4111 7.16198L18.9253 4.15958C18.8118 3.83578 18.75 3.4876 18.75 3.125ZM20.5942 4.02016C20.5895 4.01257 20.5847 4.00503 20.5797 3.99755C20.5734 3.98806 20.5669 3.97875 20.5602 3.96963C20.4035 3.72609 20.3125 3.43617 20.3125 3.125C20.3125 2.26205 21.0121 1.5625 21.875 1.5625C22.7379 1.5625 23.4375 2.26205 23.4375 3.125C23.4375 3.98794 22.7379 4.6875 21.875 4.6875C21.345 4.6875 20.8767 4.42365 20.5942 4.02016ZM6.25 4.6875C4.52411 4.6875 3.125 6.08661 3.125 7.8125V9.375H9.375V7.8125C9.375 6.08661 7.97589 4.6875 6.25 4.6875ZM10.9375 9.50836V7.8125C10.9375 5.22366 8.83883 3.125 6.25 3.125C3.66116 3.125 1.5625 5.22366 1.5625 7.8125V9.50836C0.652194 9.83011 0 10.6983 0 11.7187V16.4062C0 17.7007 1.04933 18.75 2.34375 18.75H10.1562C11.4507 18.75 12.5 17.7007 12.5 16.4062V11.7187C12.5 10.6983 11.8478 9.83011 10.9375 9.50836ZM2.34375 10.9375C1.91228 10.9375 1.5625 11.2873 1.5625 11.7187V16.4062C1.5625 16.8377 1.91228 17.1875 2.34375 17.1875H10.1562C10.5877 17.1875 10.9375 16.8377 10.9375 16.4062V11.7187C10.9375 11.2873 10.5877 10.9375 10.1562 10.9375H2.34375ZM18.8485 11.7187C19.1954 10.3709 20.4189 9.375 21.875 9.375C23.6009 9.375 25 10.7741 25 12.5C25 14.2259 23.6009 15.625 21.875 15.625C20.4189 15.625 19.1954 14.6291 18.8485 13.2812H14.8437C14.4123 13.2812 14.0625 12.9315 14.0625 12.5C14.0625 12.0685 14.4123 11.7187 14.8437 11.7187H18.8485ZM21.875 10.9375C21.0121 10.9375 20.3125 11.6371 20.3125 12.5C20.3125 13.3629 21.0121 14.0625 21.875 14.0625C22.7379 14.0625 23.4375 13.3629 23.4375 12.5C23.4375 11.6371 22.7379 10.9375 21.875 10.9375ZM6.24916 12.8906C6.56032 12.8901 6.8589 13.0135 7.07895 13.2336C7.29904 13.4536 7.42243 13.7523 7.42187 14.0635C7.42131 14.7103 6.89686 15.2344 6.25 15.2344C5.60279 15.2344 5.07812 14.7097 5.07812 14.0625C5.07812 13.4156 5.60234 12.8911 6.24916 12.8906ZM6.25 13.6719L6.24791 12.8906C6.24833 12.8906 6.24874 12.8906 6.24916 12.8906C6.24944 12.8906 6.24972 12.8906 6.25 12.8906V13.6719ZM6.64062 14.0625L7.42187 14.0646C7.42187 14.0642 7.42187 14.0639 7.42187 14.0635C7.42187 14.0632 7.42187 14.0628 7.42187 14.0625H6.64062ZM6.25112 14.4531C6.25145 14.4531 6.25177 14.4531 6.25209 14.4531L6.25 14.4531C6.14651 14.4529 6.04731 14.4116 5.97409 14.3384C5.90088 14.2652 5.85965 14.166 5.85937 14.0625M14.1932 16.7549C14.4321 16.3956 14.917 16.298 15.2763 16.5369L19.7959 19.542C20.3482 19.0494 21.0767 18.75 21.875 18.75C23.6009 18.75 25 20.1491 25 21.875C25 23.6009 23.6009 25 21.875 25C20.1491 25 18.75 23.6009 18.75 21.875C18.75 21.5121 18.8119 21.1637 18.9256 20.8397L14.4112 17.8381C14.0519 17.5992 13.9543 17.1142 14.1932 16.7549ZM20.5676 21.0191C20.4063 21.2649 20.3125 21.559 20.3125 21.875C20.3125 22.7379 21.0121 23.4375 21.875 23.4375C22.7379 23.4375 23.4375 22.7379 23.4375 21.875C23.4375 21.0121 22.7379 20.3125 21.875 20.3125C21.3406 20.3125 20.8689 20.5808 20.5871 20.99C20.5847 20.9938 20.5822 20.9975 20.5797 21.0013C20.5758 21.0073 20.5717 21.0132 20.5676 21.0191Z" fill="white"/>
</svg>
